<?xml version="1.0" encoding="utf-8"?>
<!-- Generator: Adobe Illustrator 16.0.4, SVG Export Plug-In . SVG Version: 6.00 Build 0)  -->
<!DOCTYPE svg PUBLIC "-//W3C//DTD SVG 1.1//EN" "http://www.w3.org/Graphics/SVG/1.1/DTD/svg11.dtd">
<svg version="1.1" id="Ebene_1" xmlns="http://www.w3.org/2000/svg" xmlns:xlink="http://www.w3.org/1999/xlink" x="0px" y="0px"
	 width="600px" height="600px" viewBox="0 0 600 600" enable-background="new 0 0 600 600" xml:space="preserve">
<path fill="#FFFFFF" d="M298.653,182.578c-64.207,0-116.257,52.05-116.257,116.257c0,64.208,52.05,116.258,116.257,116.258
	c64.208,0,116.257-52.051,116.257-116.258C414.91,234.627,362.86,182.578,298.653,182.578z M284,265.042
	c0-8.858,7.141-16.042,16-16.042s16,7.184,16,16.042v38.502c0,8.854-7.141,16.041-16,16.041s-16-7.188-16-16.041V265.042z
	 M329,303.544c0,14.857-12,27.102-26,28.692V346h13v6h-32v-6h13v-13.764c-15-1.591-26-13.835-26-28.692V294h6v9.544
	c0,12.4,10.096,22.458,22.5,22.458c12.404,0,22.5-10.058,22.5-22.458V294h7V303.544z"/>
<path fill="#FFFFFF" d="M293,168h12v12h-12V168z M293,165h12v-12h-12V165z M293,150h12v-11h-12V150z M293,136h12v-12h-12V136z
	 M293,121h12v-12h-12V121z M293,106h12V95h-12V106z M293,92h12V80h-12V92z M318.527,169.323l-11.668-1.227l-1.226,11.668
	l11.668,1.226L318.527,169.323z M320.062,154.738l-11.669-1.227l-1.226,11.668l11.667,1.226L320.062,154.738z M321.594,140.153
	l-11.668-1.227l-1.226,11.668l11.667,1.226L321.594,140.153z M323.127,125.568l-11.667-1.227l-1.228,11.668l11.669,1.226
	L323.127,125.568z M324.66,110.983l-11.668-1.226l-1.227,11.667l11.668,1.226L324.66,110.983z M326.192,96.398l-11.668-1.226
	l-1.226,11.667l11.667,1.226L326.192,96.398z M327.725,81.813l-11.667-1.226l-1.226,11.668l11.667,1.226L327.725,81.813z
	 M318.061,181.111l11.477,2.438l2.438-11.475l-11.477-2.439L318.061,181.111z M321.11,166.766l11.476,2.439l2.439-11.476
	l-11.477-2.439L321.11,166.766z M324.16,152.422l11.474,2.438l2.439-11.476l-11.475-2.439L324.16,152.422z M338.684,140.516
	l2.438-11.475l-11.475-2.44l-2.44,11.477L338.684,140.516z M344.173,114.696l-11.477-2.439l-2.439,11.475l11.477,2.438
	L344.173,114.696z M347.222,100.351l-11.477-2.439l-2.438,11.476l11.475,2.439L347.222,100.351z M350.27,86.005l-11.475-2.438
	l-2.438,11.477l11.474,2.438L350.27,86.005z M330.279,183.75l11.158,3.624l3.624-11.157l-11.157-3.625L330.279,183.75z
	 M334.812,169.802l11.157,3.625l3.626-11.157l-11.159-3.626L334.812,169.802z M339.344,155.855l11.156,3.625l3.626-11.158
	l-11.157-3.625L339.344,155.855z M343.874,141.908l11.158,3.625l3.625-11.157l-11.156-3.626L343.874,141.908z M359.564,131.584
	l3.626-11.156l-11.159-3.625l-3.625,11.157L359.564,131.584z M367.721,106.48l-11.158-3.626l-3.624,11.158l11.155,3.625
	L367.721,106.48z M372.253,92.531l-11.157-3.625l-3.625,11.16l11.156,3.624L372.253,92.531z M342.154,187.651l10.718,4.771
	l4.771-10.717l-10.718-4.771L342.154,187.651z M348.12,174.253l10.717,4.772l4.772-10.717l-10.719-4.773L348.12,174.253z
	 M354.085,160.857l10.718,4.77l4.771-10.717l-10.717-4.772L354.085,160.857z M360.049,147.46l10.719,4.77l4.771-10.717
	l-10.717-4.772L360.049,147.46z M366.015,134.062l10.719,4.77l4.771-10.716l-10.719-4.771L366.015,134.062z M382.694,125.435
	l4.774-10.716l-10.719-4.772l-4.77,10.717L382.694,125.435z M393.434,101.32l-10.717-4.771l-4.772,10.719l10.718,4.771
	L393.434,101.32z M353.557,192.773l10.161,5.865l5.865-10.16l-10.16-5.866L353.557,192.773z M360.89,180.072l10.16,5.866
	l5.866-10.16l-10.16-5.867L360.89,180.072z M368.224,167.373l10.159,5.864l5.866-10.16l-10.16-5.866L368.224,167.373z
	 M375.555,154.671l10.161,5.864l5.865-10.16l-10.159-5.865L375.555,154.671z M382.89,141.971l10.159,5.864l5.867-10.159
	l-10.162-5.866L382.89,141.971z M400.379,135.134l5.868-10.159l-10.161-5.866l-5.865,10.161L400.379,135.134z M413.579,112.274
	l-10.159-5.865l-5.867,10.162l10.16,5.866L413.579,112.274z M364.361,199.058l9.492,6.896l6.896-9.492l-9.491-6.896L364.361,199.058
	z M372.981,187.192l9.492,6.896l6.896-9.49l-9.491-6.897L372.981,187.192z M381.603,175.33l9.492,6.894l6.896-9.491l-9.491-6.896
	L381.603,175.33z M390.222,163.464l9.492,6.894l6.896-9.49l-9.49-6.896L390.222,163.464z M398.844,151.601l9.49,6.894l6.897-9.49
	l-9.493-6.896L398.844,151.601z M416.951,146.629l6.898-9.49l-9.491-6.895l-6.896,9.491L416.951,146.629z M432.471,125.274
	l-9.492-6.896l-6.896,9.494l9.49,6.895L432.471,125.274z M374.449,206.438l8.721,7.849l7.849-8.718l-8.718-7.851L374.449,206.438z
	 M384.265,195.538l8.719,7.851l7.85-8.717l-8.719-7.852L384.265,195.538z M394.077,184.641l8.719,7.849l7.851-8.719l-8.719-7.849
	L394.077,184.641z M403.89,173.743l8.72,7.848l7.85-8.718l-8.719-7.85L403.89,173.743z M413.703,162.845l8.719,7.848l7.851-8.717
	l-8.719-7.85L413.703,162.845z M423.517,151.945l8.715,7.848l7.854-8.717l-8.72-7.85L423.517,151.945z M449.898,140.178l-8.719-7.85
	l-7.852,8.721l8.719,7.849L449.898,140.178z M383.711,214.833l7.853,8.717l8.716-7.85l-7.848-8.719L383.711,214.833z
	 M394.612,205.018l7.85,8.719l8.719-7.848l-7.85-8.721L394.612,205.018z M405.511,195.207l7.851,8.717l8.718-7.851l-7.851-8.717
	L405.511,195.207z M416.407,185.394l7.853,8.716l8.718-7.849l-7.852-8.719L416.407,185.394z M427.307,175.582l7.852,8.716
	l8.718-7.848l-7.851-8.719L427.307,175.582z M438.206,165.767l7.847,8.717l8.723-7.849l-7.851-8.718L438.206,165.767z
	 M456.952,164.673l8.721-7.852l-7.851-8.718l-8.72,7.852L456.952,164.673z M392.044,224.148l6.898,9.49l9.489-6.896l-6.894-9.492
	L392.044,224.148z M403.912,215.527l6.895,9.492l9.492-6.894l-6.896-9.494L403.912,215.527z M415.776,206.909l6.897,9.489
	l9.491-6.896l-6.897-9.491L415.776,206.909z M427.639,198.289l6.897,9.489l9.49-6.895l-6.896-9.491L427.639,198.289z
	 M439.505,189.669l6.897,9.489l9.49-6.893l-6.896-9.492L439.505,189.669z M451.37,181.047l6.893,9.49l9.495-6.895l-6.896-9.49
	L451.37,181.047z M470.128,181.92l9.494-6.897l-6.897-9.491l-9.492,6.898L470.128,181.92z M399.357,234.284l5.869,10.16
	l10.157-5.867l-5.862-10.16L399.357,234.284z M412.063,226.951l5.864,10.161l10.16-5.864l-5.864-10.162L412.063,226.951z
	 M424.763,219.621l5.868,10.158l10.159-5.866l-5.867-10.16L424.763,219.621z M437.462,212.287l5.867,10.158l10.159-5.865
	l-5.866-10.161L437.462,212.287z M450.164,204.955l5.866,10.159l10.159-5.864l-5.867-10.16L450.164,204.955z M462.864,197.621
	l5.862,10.158l10.164-5.864l-5.867-10.159L462.864,197.621z M481.429,200.45l10.163-5.868l-5.867-10.16l-10.161,5.868
	L481.429,200.45z M405.571,245.129l4.777,10.717l10.713-4.773l-4.768-10.717L405.571,245.129z M418.975,239.164l4.771,10.718
	l10.716-4.77l-4.769-10.719L418.975,239.164z M432.371,233.202l4.773,10.716l10.719-4.772l-4.774-10.718L432.371,233.202z
	 M445.768,227.236l4.772,10.715l10.718-4.771l-4.773-10.718L445.768,227.236z M459.166,221.271l4.771,10.717l10.718-4.771
	l-4.773-10.716L459.166,221.271z M472.563,215.305l4.768,10.715l10.722-4.77l-4.771-10.716L472.563,215.305z M490.73,220.059
	l10.722-4.774l-4.774-10.716l-10.718,4.774L490.73,220.059z M410.619,256.564l3.63,11.157l11.154-3.626l-3.623-11.157
	L410.619,256.564z M424.572,252.033l3.623,11.158l11.157-3.624l-3.623-11.158L424.572,252.033z M438.518,247.503l3.627,11.157
	l11.158-3.626l-3.627-11.158L438.518,247.503z M452.465,242.972l3.626,11.155l11.157-3.625l-3.626-11.159L452.465,242.972z
	 M466.414,238.438l3.624,11.157l11.157-3.624l-3.626-11.157L466.414,238.438z M480.361,233.907l3.62,11.154l11.162-3.624
	l-3.625-11.156L480.361,233.907z M497.931,240.533l11.163-3.627l-3.628-11.156l-11.159,3.627L497.931,240.533z M414.444,268.465
	l2.442,11.475l11.473-2.44l-2.437-11.474L414.444,268.465z M428.795,265.417l2.437,11.476l11.474-2.438l-2.437-11.477
	L428.795,265.417z M443.137,262.369l2.44,11.475l11.477-2.439l-2.44-11.476L443.137,262.369z M457.481,259.32l2.44,11.474
	l11.475-2.438l-2.439-11.476L457.481,259.32z M471.827,256.27l2.438,11.475l11.475-2.438l-2.439-11.474L471.827,256.27z
	 M486.172,253.221l2.435,11.472l11.48-2.437l-2.439-11.474L486.172,253.221z M502.953,261.647l11.48-2.44l-2.443-11.475
	l-11.476,2.44L502.953,261.647z M429.898,291.14l-1.225-11.667l-11.67,1.227l1.229,11.667L429.898,291.14z M444.484,289.611
	l-1.224-11.668l-11.667,1.226l1.223,11.667L444.484,289.611z M459.072,288.078l-1.229-11.669l-11.668,1.228l1.228,11.667
	L459.072,288.078z M473.655,286.543l-1.228-11.668l-11.667,1.229l1.228,11.665L473.655,286.543z M488.24,285.012l-1.229-11.666
	l-11.665,1.224l1.226,11.667L488.24,285.012z M502.825,283.478l-1.227-11.667l-11.667,1.226l1.223,11.665L502.825,283.478z
	 M505.74,283.172l11.673-1.227l-1.231-11.667l-11.667,1.228L505.74,283.172z M430.005,293h-11.734l0.002,11.799l11.73-0.035
	L430.005,293z M444.671,293h-11.73l-0.004,12h11.731L444.671,293z M459.335,293.201l-11.731,0.035L447.605,305h11.731
	L459.335,293.201z M474,293.136l-12,0.002V305h12V293.136z M489,293.139l-12-0.002V305h12V293.139z M503,293h-11.4l-0.17,11.797
	l11.57,0.071V293z M506,305h11.999l-0.005-12H506V305z M429.9,306.86l-11.671-1.227l-1.223,11.668l11.665,1.225L429.9,306.86z
	 M444.486,308.394l-11.667-1.227l-1.229,11.667l11.667,1.228L444.486,308.394z M459.07,309.927l-11.669-1.226l-1.225,11.666
	l11.669,1.228L459.07,309.927z M473.659,311.462l-11.672-1.226l-1.226,11.665l11.671,1.226L473.659,311.462z M488.244,312.997
	l-11.67-1.228l-1.226,11.665l11.669,1.226L488.244,312.997z M502.829,314.525l-11.671-1.227l-1.229,11.665l11.673,1.231
	L502.829,314.525z M504.519,326.5l11.667,1.226l1.223-11.668l-11.663-1.226L504.519,326.5z M428.361,320.5l-11.479-2.439
	l-2.436,11.477l11.474,2.437L428.361,320.5z M442.706,323.55l-11.474-2.438l-2.442,11.475l11.475,2.439L442.706,323.55z
	 M457.052,326.599l-11.477-2.438l-2.438,11.475l11.478,2.438L457.052,326.599z M471.399,329.65l-11.479-2.438l-2.438,11.473
	l11.479,2.438L471.399,329.65z M485.744,332.702l-11.478-2.441l-2.439,11.474l11.479,2.439L485.744,332.702z M500.09,335.747
	l-11.479-2.44l-2.44,11.473l11.48,2.445L500.09,335.747z M500.519,347.832l11.475,2.439l2.435-11.477l-11.469-2.438L500.519,347.832
	z M425.405,333.904l-11.16-3.625l-3.622,11.159l11.156,3.622L425.405,333.904z M439.354,338.438l-11.157-3.625l-3.629,11.156
	l11.158,3.626L439.354,338.438z M453.301,342.969l-11.159-3.624l-3.624,11.156l11.159,3.626L453.301,342.969z M467.251,347.504
	l-11.162-3.625l-3.624,11.154l11.162,3.625L467.251,347.504z M481.198,352.038l-11.16-3.628l-3.625,11.156l11.161,3.625
	L481.198,352.038z M495.146,356.565l-11.161-3.626l-3.626,11.153l11.161,3.632L495.146,356.565z M494.311,368.63l11.157,3.625
	l3.62-11.159l-11.151-3.623L494.311,368.63z M421.064,346.927l-10.721-4.772l-4.768,10.72l10.716,4.769L421.064,346.927z
	 M434.462,352.893l-10.716-4.771l-4.776,10.717l10.719,4.772L434.462,352.893z M447.859,358.857l-10.719-4.771l-4.77,10.718
	l10.718,4.772L447.859,358.857z M461.26,364.826l-10.722-4.772l-4.771,10.715l10.722,4.772L461.26,364.826z M474.656,370.794
	l-10.72-4.775l-4.771,10.717l10.722,4.771L474.656,370.794z M488.055,376.754l-10.72-4.772l-4.772,10.713l10.719,4.779
	L488.055,376.754z M485.962,388.665l10.716,4.771l4.769-10.72l-10.712-4.77L485.962,388.665z M415.386,359.423l-10.163-5.865
	l-5.861,10.161l10.158,5.864L415.386,359.423z M428.086,366.758l-10.158-5.866l-5.87,10.16l10.16,5.864L428.086,366.758z
	 M440.786,374.09l-10.159-5.865l-5.865,10.16l10.16,5.866L440.786,374.09z M453.49,381.427l-10.164-5.867l-5.864,10.157
	l10.163,5.867L453.49,381.427z M466.188,388.762l-10.16-5.868l-5.866,10.157l10.164,5.867L466.188,388.762z M478.891,396.09
	l-10.162-5.867l-5.865,10.156l10.16,5.873L478.891,396.09z M475.564,407.717l10.159,5.865l5.863-10.162l-10.154-5.862
	L475.564,407.717z M408.432,371.258l-9.494-6.896l-6.892,9.493l9.49,6.894L408.432,371.258z M420.295,379.88l-9.488-6.896
	l-6.901,9.49l9.492,6.895L420.295,379.88z M432.161,388.499l-9.491-6.895l-6.895,9.492l9.49,6.896L432.161,388.499z
	 M444.028,397.124l-9.496-6.897l-6.894,9.488l9.495,6.897L444.028,397.124z M455.891,405.745l-9.492-6.896l-6.896,9.488l9.494,6.897
	L455.891,405.745z M467.757,414.362l-9.494-6.897l-6.894,9.486l9.49,6.904L467.757,414.362z M463.232,425.578l9.49,6.896
	l6.895-9.494l-9.487-6.892L463.232,425.578z M400.278,382.302l-8.72-7.851l-7.848,8.721l8.719,7.848L400.278,382.302z
	 M411.176,392.116l-8.715-7.849l-7.855,8.716l8.72,7.85L411.176,392.116z M422.077,401.929l-8.72-7.85l-7.849,8.72l8.718,7.85
	L422.077,401.929z M432.978,411.746l-8.724-7.851l-7.847,8.715l8.721,7.852L432.978,411.746z M443.873,421.562l-8.72-7.853
	l-7.849,8.717l8.721,7.851L443.873,421.562z M454.773,431.37l-8.722-7.852l-7.847,8.714l8.717,7.858L454.773,431.37z
	 M449.103,442.053l8.717,7.849l7.85-8.722l-8.716-7.846L449.103,442.053z M382.299,400.281l8.718-7.85l-7.853-8.718l-8.717,7.852
	L382.299,400.281z M400.827,403.332l-7.846-8.717l-8.723,7.847l7.851,8.719L400.827,403.332z M410.644,414.23l-7.852-8.718
	l-8.717,7.852l7.851,8.718L410.644,414.23z M420.457,425.133l-7.855-8.72l-8.713,7.848l7.852,8.721L420.457,425.133z
	 M430.269,436.033l-7.852-8.721l-8.717,7.849l7.854,8.72L430.269,436.033z M440.084,446.929l-7.854-8.72l-8.715,7.845l7.848,8.728
	L440.084,446.929z M433.327,456.959l7.849,8.717l8.719-7.854l-7.848-8.713L433.327,456.959z M380.746,401.538l-6.898-9.49
	l-9.49,6.896l6.899,9.49L380.746,401.538z M389.364,413.403l-6.893-9.488l-9.495,6.892l6.896,9.492L389.364,413.403z
	 M397.987,425.27l-6.896-9.49l-9.49,6.897l6.896,9.49L397.987,425.27z M406.607,437.139l-6.901-9.495l-9.486,6.895l6.897,9.493
	L406.607,437.139z M415.226,449.005l-6.897-9.494l-9.488,6.895l6.898,9.493L415.226,449.005z M416.948,451.372l-9.487,6.892
	l6.894,9.5l9.494-6.898L416.948,451.372z M416.079,470.135l6.896,9.49l9.492-6.899l-6.896-9.486L416.079,470.135z M359.422,415.388
	l10.158-5.866l-5.868-10.159l-10.16,5.868L359.422,415.388z M376.91,422.223l-5.861-10.156l-10.164,5.861l5.866,10.16
	L376.91,422.223z M384.245,434.925l-5.866-10.159l-10.158,5.868l5.865,10.158L384.245,434.925z M385.706,437.467l-10.153,5.864
	l5.866,10.162l10.16-5.863L385.706,437.467z M398.908,460.332l-5.866-10.162l-10.158,5.864l5.87,10.162L398.908,460.332z
	 M400.375,462.866l-10.155,5.862l5.862,10.168l10.163-5.868L400.375,462.866z M397.549,481.436l5.866,10.159l10.16-5.87
	l-5.866-10.154L397.549,481.436z M357.64,416.294l-4.772-10.718l-10.72,4.775l4.778,10.714L357.64,416.294z M363.604,429.692
	l-4.769-10.715l-10.72,4.768l4.771,10.718L363.604,429.692z M369.57,443.091l-4.771-10.716l-10.717,4.773l4.771,10.717
	L369.57,443.091z M375.536,456.493l-4.779-10.721l-10.71,4.77l4.771,10.722L375.536,456.493z M381.497,469.892l-4.771-10.72
	l-10.717,4.771l4.776,10.721L381.497,469.892z M382.69,472.565l-10.712,4.769l4.768,10.726l10.721-4.772L382.69,472.565z
	 M377.939,490.736l4.771,10.719l10.719-4.776l-4.773-10.712L377.939,490.736z M333.903,425.407l11.154-3.626l-3.626-11.157
	l-11.159,3.628L333.903,425.407z M349.587,435.729l-3.62-11.153l-11.161,3.62l3.625,11.159L349.587,435.729z M354.122,449.678
	l-3.625-11.155l-11.157,3.627l3.625,11.157L354.122,449.678z M358.653,463.631l-3.632-11.162l-11.149,3.625l3.623,11.16
	L358.653,463.631z M359.557,466.42l-11.155,3.623l3.628,11.161l11.153-3.625L359.557,466.42z M364.09,480.363l-11.153,3.622
	l3.622,11.165l11.16-3.625L364.09,480.363z M357.465,497.938l3.625,11.157l11.159-3.629l-3.628-11.152L357.465,497.938z
	 M320.499,428.364l11.473-2.44l-2.44-11.475l-11.479,2.44L320.499,428.364z M335.018,440.269l-2.435-11.471l-11.479,2.433
	l2.438,11.477L335.018,440.269z M338.07,454.615l-2.439-11.474l-11.476,2.441l2.439,11.475L338.07,454.615z M338.673,457.485
	l-11.468,2.439l2.438,11.478l11.476-2.438L338.673,457.485z M341.726,471.833l-11.474,2.438l2.441,11.479l11.472-2.44
	L341.726,471.833z M344.776,486.174l-11.472,2.437l2.436,11.483l11.479-2.439L344.776,486.174z M336.351,502.961l2.438,11.475
	l11.478-2.442l-2.442-11.472L336.351,502.961z M317.296,417.009l-11.67,1.227l1.233,11.668l11.664-1.229L317.296,417.009z
	 M318.831,431.597l-11.67,1.22l1.226,11.67l11.667-1.227L318.831,431.597z M320.362,446.182l-11.668,1.228l1.229,11.667
	l11.668-1.229L320.362,446.182z M321.89,460.765l-11.66,1.227l1.225,11.671l11.667-1.226L321.89,460.765z M323.426,475.353
	l-11.665,1.225l1.228,11.673l11.664-1.229L323.426,475.353z M324.96,489.934l-11.663,1.225l1.222,11.675l11.67-1.228L324.96,489.934
	z M314.826,505.748l1.226,11.667l11.67-1.229l-1.229-11.664L314.826,505.748z M293.126,418l0.007,11.871l11.729-0.071L304.86,418
	H293.126z M293,432.937V445h11.858l-0.062-11.892L293,432.937z M304.86,447.609l-11.732,0.002l0.002,11.729l11.732-0.003
	L304.86,447.609z M293.128,474h11.731l-0.005-12h-11.724L293.128,474z M293,488.676l12-0.002V477h-12V488.676z M304.859,491.432
	l-11.728-0.086L293.127,503h11.734L304.859,491.432z M293,506v12.001l11.799-0.138l0.06-11.863H293z M279.471,428.678l11.665,1.225
	l1.224-11.666l-11.67-1.227L279.471,428.678z M277.939,443.263l11.66,1.227l1.232-11.665l-11.666-1.234L277.939,443.263z
	 M276.402,457.85l11.668,1.224l1.225-11.666l-11.668-1.225L276.402,457.85z M274.867,472.432l11.667,1.228l1.222-11.672
	l-11.659-1.225L274.867,472.432z M273.34,487.023l11.667,1.226l1.227-11.673l-11.668-1.227L273.34,487.023z M271.801,501.602
	l11.669,1.228l1.225-11.671l-11.663-1.229L271.801,501.602z M270.274,516.188l11.667,1.223l1.22-11.665l-11.66-1.227
	L270.274,516.188z M279.932,416.89l-11.478-2.439l-2.432,11.477l11.473,2.437L279.932,416.89z M276.887,431.237l-11.473-2.446
	l-2.44,11.48l11.468,2.438L276.887,431.237z M273.835,445.581l-11.477-2.438l-2.437,11.476l11.476,2.437L273.835,445.581z
	 M259.313,457.483l-2.442,11.477l11.474,2.439l2.436-11.48L259.313,457.483z M253.826,483.312l11.476,2.438l2.44-11.48
	l-11.475-2.439L253.826,483.312z M250.771,497.649l11.478,2.44l2.438-11.479l-11.47-2.441L250.771,497.649z M247.729,511.996
	l11.476,2.436l2.432-11.474l-11.468-2.438L247.729,511.996z M267.714,414.252l-11.16-3.627l-3.618,11.159l11.155,3.623
	L267.714,414.252z M263.185,428.201l-11.153-3.633l-3.627,11.164l11.15,3.624L263.185,428.201z M258.65,442.147l-11.159-3.624
	l-3.623,11.157l11.158,3.623L258.65,442.147z M254.115,456.088l-11.15-3.621l-3.628,11.158l11.156,3.626L254.115,456.088z
	 M238.436,466.416l-3.628,11.165l11.158,3.623l3.627-11.163L238.436,466.416z M230.271,491.52l11.16,3.627l3.624-11.161
	l-11.151-3.627L230.271,491.52z M225.746,505.471l11.158,3.621l3.618-11.156l-11.15-3.623L225.746,505.471z M255.838,410.351
	l-10.72-4.773l-4.765,10.721l10.716,4.768L255.838,410.351z M249.876,423.75l-10.712-4.778l-4.774,10.724l10.711,4.77
	L249.876,423.75z M243.908,437.146l-10.719-4.771l-4.769,10.718l10.719,4.769L243.908,437.146z M237.94,450.536l-10.71-4.767
	l-4.775,10.718l10.716,4.772L237.94,450.536z M231.984,463.94l-10.717-4.771l-4.774,10.724l10.718,4.771L231.984,463.94z
	 M215.302,472.561l-4.778,10.722l10.719,4.773l4.771-10.722L215.302,472.561z M204.564,496.682l10.718,4.77l4.764-10.717
	l-10.71-4.771L204.564,496.682z M244.435,405.229l-10.162-5.867l-5.859,10.163l10.159,5.862L244.435,405.229z M237.105,417.933
	l-10.154-5.872l-5.869,10.166l10.154,5.862L237.105,417.933z M229.77,430.632l-10.162-5.865l-5.863,10.16l10.162,5.863
	L229.77,430.632z M222.435,443.324l-10.153-5.86l-5.869,10.16l10.159,5.865L222.435,443.324z M215.11,456.032l-10.16-5.865
	l-5.87,10.165l10.161,5.865L215.11,456.032z M197.619,462.861l-5.873,10.164l10.161,5.866l5.865-10.163L197.619,462.861z
	 M184.418,485.729l10.161,5.863l5.858-10.161l-10.153-5.863L184.418,485.729z M233.629,398.943l-9.493-6.896l-6.89,9.495
	l9.491,6.893L233.629,398.943z M225.012,410.812l-9.485-6.902l-6.899,9.498l9.486,6.891L225.012,410.812z M216.39,422.675
	l-9.494-6.896l-6.892,9.491l9.493,6.895L216.39,422.675z M207.768,434.53l-9.485-6.889l-6.898,9.491l9.49,6.895L207.768,434.53z
	 M199.155,446.403l-9.491-6.895l-6.9,9.495l9.492,6.896L199.155,446.403z M181.046,451.367l-6.903,9.494l9.492,6.896l6.896-9.494
	L181.046,451.367z M165.528,472.729l9.492,6.894l6.889-9.493l-9.484-6.893L165.528,472.729z M223.541,391.563l-8.72-7.852
	l-7.844,8.724l8.717,7.846L223.541,391.563z M213.729,402.466l-8.712-7.855l-7.854,8.725l8.713,7.844L213.729,402.466z
	 M203.914,413.362l-8.72-7.85l-7.847,8.719l8.72,7.849L203.914,413.362z M194.101,424.252l-8.713-7.843l-7.853,8.718l8.717,7.85
	L194.101,424.252z M184.294,435.159l-8.718-7.849l-7.855,8.722l8.719,7.851L184.294,435.159z M174.477,446.053l-8.711-7.849
	l-7.858,8.72l8.719,7.851L174.477,446.053z M148.1,457.826l8.719,7.848l7.843-8.722l-8.711-7.845L148.1,457.826z M214.278,383.169
	l-7.852-8.721l-8.713,7.855l7.85,8.716L214.278,383.169z M203.381,392.986l-7.843-8.723l-8.723,7.854l7.846,8.712L203.381,392.986z
	 M192.48,402.797l-7.852-8.719l-8.715,7.852l7.852,8.717L192.48,402.797z M181.583,412.601l-7.845-8.71l-8.721,7.849l7.849,8.718
	L181.583,412.601z M170.69,422.424l-7.85-8.717l-8.724,7.854l7.852,8.718L170.69,422.424z M159.788,432.23l-7.843-8.716
	l-8.726,7.851l7.851,8.72L159.788,432.23z M141.043,433.332l-8.719,7.852l7.851,8.716l8.712-7.854L141.043,433.332z
	 M205.944,373.853l-6.897-9.494l-9.486,6.902l6.896,9.488L205.944,373.853z M194.081,382.477l-6.888-9.495l-9.496,6.9l6.892,9.484
	L194.081,382.477z M182.214,391.095l-6.897-9.491l-9.488,6.897l6.897,9.489L182.214,391.095z M170.351,399.705l-6.892-9.483
	l-9.494,6.896l6.895,9.489L170.351,399.705z M158.492,408.336l-6.896-9.489l-9.497,6.897l6.897,9.492L158.492,408.336z
	 M146.624,416.949l-6.889-9.487l-9.499,6.895l6.896,9.493L146.624,416.949z M127.867,416.086l-9.492,6.896l6.896,9.489l9.485-6.9
	L127.867,416.086z M198.63,363.716l-5.867-10.163l-10.156,5.873l5.866,10.157L198.63,363.716z M185.929,371.053l-5.857-10.162
	l-10.166,5.869l5.863,10.153L185.929,371.053z M173.227,378.383l-5.867-10.16l-10.158,5.868l5.868,10.158L173.227,378.383z
	 M160.529,385.706l-5.862-10.151l-10.163,5.865l5.865,10.159L160.529,385.706z M147.833,393.05l-5.867-10.158l-10.166,5.869
	l5.867,10.159L147.833,393.05z M135.129,400.376l-5.86-10.155l-10.167,5.863l5.866,10.163L135.129,400.376z M116.565,397.556
	l-10.161,5.868l5.867,10.156l10.155-5.869L116.565,397.556z M192.415,352.871l-4.772-10.723l-10.714,4.779l4.771,10.716
	L192.415,352.871z M179.017,358.84l-4.763-10.719l-10.723,4.773l4.77,10.711L179.017,358.84z M165.618,364.803l-4.772-10.72
	l-10.716,4.775l4.774,10.716L165.618,364.803z M152.224,370.757l-4.769-10.707l-10.72,4.77l4.771,10.717L152.224,370.757z
	 M138.83,376.733l-4.772-10.716l-10.724,4.774l4.773,10.718L138.83,376.733z M125.431,382.691l-4.767-10.711l-10.724,4.768
	l4.771,10.721L125.431,382.691z M107.263,377.946l-10.719,4.774l4.773,10.714l10.712-4.776L107.263,377.946z M187.367,341.435
	l-3.625-11.162l-11.155,3.634l3.625,11.155L187.367,341.435z M173.419,345.971l-3.616-11.158l-11.163,3.627l3.623,11.149
	L173.419,345.971z M159.47,350.501l-3.626-11.16l-11.156,3.629l3.627,11.155L159.47,350.501z M145.527,355.021l-3.624-11.146
	l-11.16,3.622l3.625,11.157L145.527,355.021z M131.582,359.565l-3.626-11.155l-11.164,3.626l3.627,11.159L131.582,359.565z
	 M117.633,364.091l-3.621-11.151l-11.164,3.621l3.624,11.16L117.633,364.091z M100.061,357.473L88.902,361.1l3.627,11.154
	l11.153-3.63L100.061,357.473z M183.543,329.533l-2.438-11.479l-11.474,2.448l2.44,11.473L183.543,329.533z M169.197,332.588
	l-2.43-11.477l-11.481,2.44l2.438,11.468L169.197,332.588z M154.851,335.635l-2.44-11.479l-11.474,2.443l2.441,11.474
	L154.851,335.635z M140.512,338.674l-2.438-11.465l-11.478,2.436l2.438,11.475L140.512,338.674z M126.168,341.734l-2.44-11.474
	l-11.482,2.439l2.44,11.478L126.168,341.734z M111.822,344.777l-2.435-11.469l-11.482,2.434l2.438,11.479L111.822,344.777z
	 M95.039,336.358L83.562,338.8l2.442,11.472l11.471-2.443L95.039,336.358z M180.984,317.298l-1.225-11.672l-11.667,1.235
	l1.227,11.666L180.984,317.298z M166.397,318.836l-1.217-11.668l-11.674,1.227l1.226,11.661L166.397,318.836z M151.811,320.367
	l-1.227-11.671l-11.666,1.23l1.229,11.666L151.811,320.367z M137.233,321.89l-1.227-11.657l-11.669,1.224l1.225,11.667
	L137.233,321.89z M122.648,323.436l-1.228-11.666l-11.674,1.226l1.227,11.669L122.648,323.436z M108.062,324.961l-1.223-11.659
	l-11.673,1.22l1.224,11.669L108.062,324.961z M92.25,314.834l-11.669,1.229l1.229,11.664l11.664-1.231L92.25,314.834z
	 M167.988,304.865l11.729-0.003l0.003-11.736l-11.733,0.008L167.988,304.865z M153,304.86l11.89-0.062L165.06,293H153V304.86z
	 M138.655,305H150v-11.87l-11.539,0.072L138.655,305z M123.991,304.862l11.736-0.007l-0.001-11.722l-11.733-0.003L123.991,304.862z
	 M109,304.87l12-0.002V293h-12V304.87z M94.659,304.863l11.736-0.003l0.002-11.724l-11.736-0.007L94.659,304.863z M91.728,293.137
	l-11.734,0.002l0.003,11.729l11.729-0.006L91.728,293.137z M168.093,291.14l11.665,1.223l1.23-11.672l-11.67-1.217L168.093,291.14z
	 M153.511,289.602l11.661,1.231l1.234-11.667l-11.669-1.226L153.511,289.602z M138.92,288.074l11.674,1.227l1.227-11.671
	l-11.672-1.222L138.92,288.074z M124.336,286.538l11.672,1.219l1.224-11.657l-11.669-1.23L124.336,286.538z M109.755,285.013
	l11.668,1.224l1.227-11.67l-11.668-1.226L109.755,285.013z M95.166,283.472l11.671,1.224l1.228-11.659l-11.671-1.233L95.166,283.472
	z M93.477,271.504l-11.67-1.225l-1.223,11.666l11.666,1.22L93.477,271.504z M183.548,268.455l-11.479-2.43l-2.438,11.473
	l11.474,2.437L183.548,268.455z M155.29,274.445l11.469,2.444l2.446-11.475l-11.477-2.439L155.29,274.445z M140.938,271.401
	l11.482,2.44l2.44-11.48l-11.48-2.435L140.938,271.401z M126.596,268.348l11.481,2.433l2.436-11.465l-11.477-2.442L126.596,268.348z
	 M112.254,265.308l11.476,2.438l2.439-11.478l-11.476-2.439L112.254,265.308z M97.905,262.25l11.479,2.438l2.44-11.466
	l-11.479-2.447L97.905,262.25z M97.477,250.171l-11.479-2.438l-2.435,11.474l11.474,2.433L97.477,250.171z M176.211,252.938
	l-3.624,11.155l11.156,3.624l3.629-11.162L176.211,252.938z M158.644,259.559l11.151,3.629l3.632-11.155l-11.159-3.625
	L158.644,259.559z M144.689,255.031l11.164,3.627l3.627-11.162l-11.163-3.621L144.689,255.031z M130.744,250.495l11.164,3.62
	l3.622-11.147l-11.159-3.628L130.744,250.495z M116.799,245.973l11.158,3.624l3.626-11.16l-11.157-3.625L116.799,245.973z
	 M102.847,241.432l11.162,3.624l3.625-11.147l-11.159-3.634L102.847,241.432z M103.684,229.375l-11.161-3.625l-3.622,11.156
	l11.158,3.619L103.684,229.375z M176.929,251.072l10.716,4.769l4.776-10.721l-10.723-4.763L176.929,251.072z M163.536,245.104
	l10.71,4.775l4.778-10.714l-10.72-4.772L163.536,245.104z M150.13,239.143l10.723,4.774l4.774-10.722l-10.724-4.768L150.13,239.143z
	 M136.736,233.174l10.724,4.766l4.767-10.707l-10.718-4.775L136.736,233.174z M123.339,227.219l10.719,4.77l4.772-10.72
	l-10.718-4.772L123.339,227.219z M109.939,221.244l10.721,4.771l4.771-10.708l-10.718-4.78L109.939,221.244z M112.032,209.34
	l-10.721-4.77l-4.768,10.716l10.718,4.765L112.032,209.34z M198.637,234.274l-10.167-5.858l-5.863,10.159l10.159,5.863
	L198.637,234.274z M169.912,231.239l10.152,5.868l5.872-10.156l-10.162-5.866L169.912,231.239z M157.203,223.91l10.166,5.869
	l5.868-10.165l-10.166-5.862L157.203,223.91z M144.505,216.573l10.167,5.861l5.859-10.15l-10.16-5.869L144.505,216.573z
	 M131.805,209.251l10.161,5.864l5.867-10.163l-10.161-5.866L131.805,209.251z M119.103,201.908l10.164,5.865l5.864-10.15
	l-10.16-5.875L119.103,201.908z M122.429,190.288l-10.164-5.864l-5.863,10.16l10.162,5.859L122.429,190.288z M196.454,217.249
	l-6.894,9.492l9.49,6.892l6.901-9.494L196.454,217.249z M177.701,218.118l9.484,6.896l6.901-9.486l-9.493-6.896L177.701,218.118z
	 M165.828,209.5l9.497,6.9l6.898-9.496l-9.498-6.893L165.828,209.5z M153.967,200.876l9.499,6.893l6.889-9.483l-9.491-6.898
	L153.967,200.876z M142.102,192.267l9.492,6.894l6.897-9.494L149,182.772L142.102,192.267z M130.237,183.636l9.495,6.896
	l6.893-9.481l-9.49-6.905L130.237,183.636z M134.759,172.427l-9.495-6.894l-6.892,9.49l9.494,6.89L134.759,172.427z
	 M214.287,214.823l-8.726-7.845l-7.848,8.719l8.718,7.847L214.287,214.823z M186.82,205.882l8.711,7.85l7.854-8.713l-8.72-7.851
	L186.82,205.882z M175.913,196.07l8.723,7.855l7.854-8.723l-8.725-7.847L175.913,196.07z M165.019,186.254l8.726,7.847l7.842-8.71
	l-8.718-7.853L165.019,186.254z M154.118,176.451l8.719,7.849l7.852-8.721l-8.719-7.85L154.118,176.451z M143.221,166.627
	l8.722,7.85l7.846-8.708l-8.716-7.859L143.221,166.627z M148.889,155.953l-8.723-7.848l-7.847,8.717l8.722,7.844L148.889,155.953z
	 M215.691,197.716l-8.716,7.85l7.849,8.716l8.725-7.852L215.691,197.716z M197.168,194.666l7.843,8.718l8.722-7.844l-7.852-8.72
	L197.168,194.666z M187.346,183.768l7.854,8.724l8.722-7.854l-7.856-8.716L187.346,183.768z M177.538,172.867l7.858,8.716
	l8.708-7.842l-7.849-8.722L177.538,172.867z M167.722,161.979l7.851,8.717l8.721-7.852l-7.851-8.718L167.722,161.979z
	 M157.911,151.07l7.854,8.719l8.713-7.84l-7.847-8.727L157.911,151.07z M164.664,141.046l-7.854-8.717l-8.715,7.849l7.854,8.713
	L164.664,141.046z M233.639,199.05l-6.904-9.487l-9.489,6.896l6.895,9.489L233.639,199.05z M208.632,184.593l6.889,9.491l9.494-6.89
	l-6.897-9.492L208.632,184.593z M200.002,172.729l6.899,9.496l9.495-6.898l-6.902-9.491L200.002,172.729z M191.388,160.862
	l6.904,9.49l9.48-6.89l-6.894-9.494L191.388,160.862z M182.764,149.007l6.896,9.491l9.494-6.897l-6.896-9.491L182.764,149.007z
	 M181.045,146.625l9.486-6.887l-6.892-9.499l-9.493,6.894L181.045,146.625z M181.91,127.869l-6.9-9.49l-9.487,6.895l6.9,9.486
	L181.91,127.869z M238.569,182.609l-10.158,5.865l5.865,10.159l10.167-5.867L238.569,182.609z M221.085,175.774l5.859,10.159
	l10.163-5.859l-5.868-10.162L221.085,175.774z M213.743,163.072l5.87,10.165l10.164-5.868l-5.873-10.16L213.743,163.072z
	 M212.29,160.53l10.149-5.86l-5.864-10.164l-10.159,5.863L212.29,160.53z M199.079,137.679l5.867,10.16l10.162-5.867l-5.866-10.16
	L199.079,137.679z M197.619,135.13l10.153-5.857l-5.861-10.167l-10.161,5.864L197.619,135.13z M200.439,116.567l-5.87-10.159
	l-10.156,5.865l5.871,10.156L200.439,116.567z M255.848,187.646l-4.781-10.715l-10.716,4.772l4.771,10.715L255.848,187.646z
	 M234.393,168.305l4.765,10.716l10.719-4.765l-4.773-10.719L234.393,168.305z M228.419,154.905l4.774,10.723l10.721-4.773
	l-4.778-10.718L228.419,154.905z M222.46,141.507l4.779,10.719l10.707-4.768l-4.769-10.72L222.46,141.507z M216.488,128.118
	l4.773,10.718l10.72-4.773l-4.772-10.717L216.488,128.118z M215.303,125.431l10.71-4.764l-4.767-10.725l-10.718,4.77
	L215.303,125.431z M220.048,107.265l-4.775-10.717l-10.714,4.772l4.777,10.713L220.048,107.265z M264.089,172.589l-11.156,3.625
	l3.625,11.156l11.165-3.625L264.089,172.589z M248.408,162.268l3.619,11.156l11.159-3.619l-3.626-11.159L248.408,162.268z
	 M243.868,148.317l3.627,11.163l11.162-3.626l-3.632-11.159L243.868,148.317z M239.341,134.369l3.632,11.16l11.146-3.624
	l-3.622-11.159L239.341,134.369z M238.429,131.588l11.16-3.625l-3.626-11.157l-11.161,3.625L238.429,131.588z M233.905,117.633
	l11.148-3.618l-3.62-11.164l-11.158,3.624L233.905,117.633z M240.522,100.063l-3.629-11.158l-11.154,3.626l3.632,11.154
	L240.522,100.063z M277.494,169.633l-11.474,2.438l2.439,11.473l11.483-2.437L277.494,169.633z M274.446,155.292l-11.469,2.437
	l2.432,11.472l11.476-2.432L274.446,155.292z M259.92,143.38l2.44,11.481l11.479-2.439l-2.445-11.479L259.92,143.38z
	 M259.323,140.514l11.463-2.438l-2.435-11.476l-11.475,2.436L259.323,140.514z M256.259,126.173l11.479-2.438l-2.44-11.475
	l-11.479,2.438L256.259,126.173z M253.219,111.822l11.466-2.432l-2.432-11.482l-11.476,2.438L253.219,111.822z M261.637,95.042
	l-2.443-11.478l-11.472,2.441l2.446,11.473L261.637,95.042z M279.468,169.32l1.227,11.665l11.674-1.223l-1.235-11.668
	L279.468,169.32z M279.161,166.402l11.667-1.219l-1.227-11.669l-11.661,1.224L279.161,166.402z M277.627,151.821l11.672-1.226
	l-1.232-11.671l-11.667,1.224L277.627,151.821z M276.106,137.235l11.655-1.227l-1.222-11.668l-11.666,1.223L276.106,137.235z
	 M274.559,122.652l11.67-1.225l-1.227-11.667l-11.67,1.224L274.559,122.652z M273.036,108.062l11.657-1.219l-1.219-11.674
	l-11.668,1.225L273.036,108.062z M283.161,92.253l-1.229-11.67l-11.665,1.229l1.233,11.667L283.161,92.253z"/>
<path stroke="#000000" stroke-width="1.7801" stroke-miterlimit="10" d="M298.653,77.488c-122.247,0-221.347,99.101-221.347,221.347
	c0,122.247,99.1,221.347,221.347,221.347C420.9,520.182,520,421.082,520,298.835C520,176.589,420.9,77.488,298.653,77.488z
	 M298.653,415.093c-64.207,0-116.257-52.051-116.257-116.258c0-64.207,52.05-116.257,116.257-116.257
	c64.208,0,116.257,52.05,116.257,116.257C414.91,363.042,362.86,415.093,298.653,415.093z"/>
</svg>
