<?xml version="1.0" encoding="utf-8"?>
<!-- Generator: Adobe Illustrator 16.0.4, SVG Export Plug-In . SVG Version: 6.00 Build 0)  -->
<!DOCTYPE svg PUBLIC "-//W3C//DTD SVG 1.1//EN" "http://www.w3.org/Graphics/SVG/1.1/DTD/svg11.dtd">
<svg version="1.1" id="hashtag_xA0_Bild_1_" xmlns="http://www.w3.org/2000/svg" xmlns:xlink="http://www.w3.org/1999/xlink"
	 x="0px" y="0px" width="400px" height="400px" viewBox="0 0 400 400" enable-background="new 0 0 400 400" xml:space="preserve">
<path d="M199-1C88.72-1-1,88.72-1,199s89.72,200,200,200s200-89.72,200-200S309.28-1,199-1z M199,389C94.233,389,9,303.767,9,199
	S94.233,9,199,9s190,85.233,190,190S303.767,389,199,389z M135.107,170.369h36.835l9.595-45.651h11.437l-9.496,45.651h48.573
	l9.464-45.651h11.665l-9.466,45.651h22.684v11.552h-25.078l-8.935,43.097h34.013v11.773h-36.455l-9.419,45.43h-11.662l9.418-45.43
	H169.66l-9.449,45.43h-11.774l9.547-45.43h-22.876v-11.773h25.352l9.056-43.097h-34.407V170.369z M181.075,181.92l-9.306,43.097
	h48.95l8.937-43.097H181.075z"/>
</svg>
