<?xml version="1.0" encoding="utf-8"?>
<!-- Generator: Adobe Illustrator 16.0.4, SVG Export Plug-In . SVG Version: 6.00 Build 0)  -->
<!DOCTYPE svg PUBLIC "-//W3C//DTD SVG 1.1//EN" "http://www.w3.org/Graphics/SVG/1.1/DTD/svg11.dtd">
<svg version="1.1" id="Ebene_2" xmlns="http://www.w3.org/2000/svg" xmlns:xlink="http://www.w3.org/1999/xlink" x="0px" y="0px"
	 width="400px" height="400px" viewBox="0 0 400 400" enable-background="new 0 0 400 400" xml:space="preserve">
<path d="M200,400C89.72,400,0,310.28,0,200S89.72,0,200,0s200,89.72,200,200S310.28,400,200,400z M200,10
	C95.233,10,10,95.233,10,200s85.233,190,190,190s190-85.233,190-190S304.767,10,200,10z M200,210
	c11.117,0,21.113-11.175,21.113-24.959l0.333-55.083c0-13.784-9.996-24.958-21.113-24.958c-11.118,0-21.113,11.175-21.113,24.958
	l-0.333,55.083C178.887,198.825,188.882,210,200,210z M220.446,279.709h-10.056v-26.227c28.479-5.971,50.282-36.597,50.282-73.607
	v-12.092c0-6.895-4.496-12.479-10.056-12.479s-10.058,5.585-10.058,12.479v12.092c0,27.53-18.031,49.917-40.227,49.917
	s-40.227-22.387-40.227-49.917v-12.092c0-6.895-4.5-12.479-10.056-12.479c-5.557,0-10.057,5.585-10.057,12.479v12.092
	c0,37.011,21.802,67.637,50.283,73.607v26.227H180.22c-11.118,0-20.114,11.163-20.114,24.958h80.454
	C240.56,290.872,231.562,279.709,220.446,279.709z"/>
</svg>
